<?xml version="1.0" encoding="utf-8"?>
<!-- Generator: Adobe Illustrator 19.2.1, SVG Export Plug-In . SVG Version: 6.00 Build 0)  -->
<svg version="1.1" id="Layer_1" xmlns="http://www.w3.org/2000/svg" xmlns:xlink="http://www.w3.org/1999/xlink" x="0px" y="0px"
	 viewBox="0 0 289 86.1" style="enable-background:new 0 0 289 86.1;" xml:space="preserve">
<style type="text/css">
	.st0{fill:#0B4F8A;}
	.st1{fill:#070909;}
</style>
<g>
	<path class="st0" d="M113,10v16.2c1.7-3,6.5-4.7,9.6-4.7c8.5,0,14.9,5.2,14.9,15.3c0,9.6-6.5,15.3-15,15.3c-3.6,0-7.2-1.2-9.4-4.7
		l-0.5,4h-6.7V10H113z M113.5,36.8c0,5.3,3.9,8.6,8.5,8.6c4.6,0,8.3-3.5,8.3-8.6c0-5.3-3.7-8.5-8.3-8.5
		C117.4,28.2,113.5,31.7,113.5,36.8z"/>
	<path class="st0" d="M165.9,22.2h6.9v29.2H166l-0.4-4.3c-1.7,3.4-6.2,5.1-9.5,5.1c-8.6,0.1-15-5.3-15-15.5
		c0-10.1,6.7-15.3,15.2-15.3c3.9,0,7.6,1.8,9.3,4.7L165.9,22.2z M148.4,36.8c0,5.6,3.8,8.9,8.6,8.9c11.4,0,11.4-17.7,0-17.7
		C152.3,27.9,148.4,31.2,148.4,36.8z"/>
	<path class="st0" d="M185.6,22.2l0.5,3.4c2.2-3.6,5.3-4.1,8.2-4.1c3,0,5.9,1.2,7.5,2.8l-3.3,6.3c-1.5-1.2-2.8-1.9-5.2-1.9
		c-3.8,0-7.3,2-7.3,7.4v15.4h-7.2V22.2H185.6z"/>
	<path class="st0" d="M224,51.4V35.8c0-3.8-2-7.3-6-7.3c-3.9,0-6.2,3.5-6.2,7.3v15.6h-7.2V22.1h6.7l0.5,3.6c1.5-3,4.9-4,7.7-4
		c3.5,0,7,1.4,8.6,5.4c2.6-4.1,6-5.3,9.8-5.3c8.3,0,12.4,5.1,12.4,13.9v15.7h-7.2V35.6c0-3.8-1.6-7.1-5.5-7.1
		c-3.9,0-6.3,3.4-6.3,7.2v15.6H224z"/>
	<path class="st0" d="M280.8,22.2h6.9v29.2h-6.8l-0.4-4.3c-1.7,3.4-6.2,5.1-9.5,5.1c-8.6,0.1-15-5.3-15-15.5
		c0-10.1,6.7-15.3,15.2-15.3c3.9,0,7.6,1.8,9.3,4.7L280.8,22.2z M263.3,36.8c0,5.6,3.8,8.9,8.6,8.9c11.4,0,11.4-17.7,0-17.7
		C267.1,27.9,263.3,31.2,263.3,36.8z"/>
</g>
<g>
	<path class="st1" d="M118.6,80.3l-1.6-3.5h-8.6l-1.6,3.5h-1.2l6.4-14.3h1.2l6.4,14.3H118.6z M116.6,75.8l-3.8-8.7l-3.8,8.7H116.6z"
		/>
	<path class="st1" d="M137.6,66v8.9c0,7.5-11,7.5-11,0V66h1.1v8.9c0,6.2,8.8,6.1,8.8,0V66H137.6z"/>
	<path class="st1" d="M150.8,67h-5.2v-1h11.5v1h-5.2v13.3h-1.1V67z"/>
	<path class="st1" d="M179.2,73.2c0,3.8-2.4,7.4-7.2,7.4c-4.8,0-7.2-3.6-7.2-7.4c0-3.8,2.4-7.4,7.2-7.4
		C176.8,65.8,179.2,69.3,179.2,73.2z M165.8,73.2c0,3.2,2.1,6.4,6.1,6.4c4.1,0,6.2-3.2,6.2-6.4c0-3.3-2-6.4-6.2-6.4
		C167.8,66.8,165.8,69.8,165.8,73.2z"/>
	<path class="st1" d="M200.8,75.4v5h-1.1V66c2.1,0,4.2,0,6.3,0c6.2,0,6.2,9.4,0,9.4H200.8z M200.8,67v7.3h5.2c4.8,0,4.8-7.3,0-7.3
		H200.8z"/>
	<path class="st1" d="M230.6,80.3l-1.6-3.5h-8.6l-1.6,3.5h-1.2l6.4-14.3h1.2l6.4,14.3H230.6z M228.6,75.8l-3.8-8.7l-3.8,8.7H228.6z"
		/>
	<path class="st1" d="M251.2,80.3h-1.5l-5-5.4h-3.9v5.4h-1.1V66c2.1,0,4.2,0,6.3,0c3.1,0,4.7,2.2,4.7,4.5c0,2.3-1.5,4.4-4.6,4.4
		L251.2,80.3z M240.9,73.9h5.1c2.5,0,3.6-1.4,3.6-3.4c0-1.7-1.1-3.4-3.5-3.4h-5.2V73.9z"/>
	<path class="st1" d="M263.8,67h-5.2v-1h11.5v1h-5.2v13.3h-1.1V67z"/>
	<path class="st1" d="M287.6,68.8c-1-1.7-2.7-1.9-4.3-1.9c-1.7,0-4.3,0.6-4.3,2.9c0,1.8,2,2.3,4.4,2.7c2.8,0.5,5.6,1,5.6,4.1
		c0,3.2-3.3,4-5.7,4c-2.2,0-4.8-0.9-5.9-3.1l1-0.5c0.9,1.7,3.1,2.6,4.9,2.6s4.6-0.5,4.6-3c0-2.1-2.4-2.6-4.7-3.1
		c-2.6-0.5-5.3-1-5.3-3.7c-0.1-3,3.1-4,5.4-4c2,0,3.8,0.3,5.2,2.4L287.6,68.8z"/>
</g>
<g>
	<path class="st0" d="M43,0C19.3,0,0,19.3,0,43c0,23.7,19.3,43,43,43c23.7,0,43-19.3,43-43C86.1,19.3,66.8,0,43,0z M43,77.3
		c-4.6,0-9.1-0.9-13.1-2.6V60.9H30c4,2.9,8.3,4.4,13.2,4.4h0.3c4.7,0,9.1-1.5,13.2-4.5c4.5-3.7,7.2-7.9,8.2-12.8
		c0-0.2,0.1-0.4,0.1-0.5h-9.2c-0.3,0.9-0.7,1.7-1.2,2.6c-0.2,0.3-0.3,0.6-0.5,0.8c-0.2,0.2-0.4,0.5-0.6,0.7
		c-2.9,3.1-6.1,4.7-9.5,4.7h-1.2c-1.7,0-3.7-0.5-5.8-1.6c-3.1-2-5.1-4.4-6.2-7.2h-9.6v21.9C13.6,63.1,8.8,53.6,8.8,43
		c0-10.6,4.8-20,12.3-26.3v21.9h9.7c0.3-0.8,0.6-1.6,1-2.4c0,0,0.1-0.1,0.1-0.2c3-4.2,6.8-6.4,11.2-6.4c3.2,0,6,1,8.4,2.9
		c2.1,1.8,3.5,3.8,4.3,6H65c-0.6-3.2-2-6.3-4.3-9.3c-4.8-5.7-10.6-8.5-17.5-8.5c-4.6,0-9,1.5-13.1,4.4h-0.2V11.4
		c4-1.7,8.5-2.6,13.1-2.6c18.9,0,34.3,15.4,34.3,34.3C77.3,61.9,61.9,77.3,43,77.3z"/>
</g>
</svg>
